<?xml version="1.0" encoding="utf-8"?>
<svg width="782px" height="423px" viewBox="0 0 782 423" version="1.1" xmlns:xlink="http://www.w3.org/1999/xlink" xmlns="http://www.w3.org/2000/svg">
  <desc>Created with Lunacy</desc>
  <defs>
    <filter filterUnits="userSpaceOnUse" color-interpolation-filters="sRGB" id="filter_1">
      <feFlood flood-opacity="0" result="BackgroundImageFix" />
      <feBlend mode="normal" in="SourceGraphic" in2="BackgroundImageFix" result="shape" />
      <feGaussianBlur stdDeviation="23" result="effect0_gaussianBlur" />
    </filter>
  </defs>
  <g filter="url(#filter_1)">
    <path d="M21.0332 0L643.61 0Q644.174 0 644.738 0.0303246Q645.301 0.0606492 645.863 0.121211Q646.424 0.181772 646.981 0.272396Q647.538 0.36302 648.09 0.483444Q648.641 0.603868 649.185 0.753744Q649.73 0.903621 650.265 1.08252Q650.8 1.26141 651.325 1.46881Q651.85 1.67621 652.363 1.91151Q652.876 2.14682 653.376 2.40935Q653.876 2.67187 654.361 2.96087Q654.845 3.24986 655.314 3.56448Q655.783 3.87911 656.234 4.21846Q656.685 4.55781 657.117 4.9209Q657.549 5.28399 657.961 5.66977Q658.373 6.05556 658.764 6.46292Q659.155 6.87029 659.523 7.29805Q659.891 7.72582 660.236 8.17276Q660.581 8.61969 660.901 9.0845Q661.222 9.54931 661.516 10.0307Q661.811 10.512 662.08 11.0085Q662.348 11.505 662.59 12.0152Q662.831 12.5254 663.045 13.0478Q663.259 13.5703 663.444 14.1034Q663.63 14.6366 663.786 15.179Q663.943 15.7213 664.07 16.2713Q664.197 16.8213 664.294 17.3773Q664.391 17.9333 664.459 18.4937Q664.526 19.0541 664.563 19.6174Q664.6 20.1806 664.607 20.7451Q664.614 21.3095 664.591 21.8735Q664.567 22.4374 664.513 22.9993Q664.459 23.5612 664.376 24.1194L635.626 215.44L23.3009 270.929Q22.7585 270.978 22.2143 270.999Q21.6701 271.02 21.1255 271.013Q20.5809 271.005 20.0374 270.97Q19.494 270.934 18.953 270.871Q18.4121 270.807 17.8753 270.715Q17.3384 270.624 16.807 270.505Q16.2756 270.385 15.751 270.239Q15.2265 270.092 14.7103 269.918Q14.1941 269.745 13.6876 269.545Q13.1811 269.344 12.6856 269.118Q12.1902 268.892 11.7071 268.641Q11.2241 268.389 10.7547 268.113Q10.2853 267.836 9.83088 267.536Q9.37646 267.236 8.93821 266.913Q8.49996 266.589 8.07906 266.244Q7.65816 265.898 7.25575 265.531Q6.85333 265.164 6.47048 264.777Q6.08763 264.389 5.72537 263.983Q5.36312 263.576 5.02243 263.151Q4.68174 262.726 4.36354 262.284Q4.04534 261.842 3.75048 261.384Q3.45562 260.926 3.18489 260.454Q2.91416 259.981 2.66829 259.495Q2.42243 259.009 2.20208 258.511Q1.98174 258.013 1.78751 257.504Q1.59328 256.995 1.42569 256.477Q1.2581 255.959 1.11759 255.433Q0.977087 254.907 0.864048 254.374Q0.751009 253.841 0.66574 253.303Q0.580471 252.765 0.523201 252.224Q0.465931 251.682 0.436814 251.138Q0.407696 250.594 0.40681 250.05L0.0342193 21.0332Q0.0333797 20.5171 0.0578878 20.0017Q0.0823959 19.4862 0.132192 18.9726Q0.181989 18.459 0.256954 17.9484Q0.331918 17.4379 0.43187 16.9316Q0.531822 16.4254 0.65652 15.9246Q0.781218 15.4239 0.930361 14.9299Q1.0795 14.4359 1.25273 13.9498Q1.42596 13.4637 1.62285 12.9867Q1.81975 12.5097 2.03983 12.043Q2.25992 11.5762 2.50267 11.1209Q2.74541 10.6655 3.01023 10.2226Q3.27505 9.7797 3.56131 9.35034Q3.84756 8.92099 4.15456 8.50621Q4.46156 8.09143 4.78856 7.69224Q5.11556 7.29304 5.46178 6.91039Q5.80799 6.52773 6.17258 6.16255Q6.53718 5.79736 6.91926 5.45053Q7.30135 5.10369 7.70002 4.77604Q8.09868 4.44839 8.51296 4.14072Q8.92723 3.83304 9.35612 3.54609Q9.78501 3.25914 10.2275 2.9936Q10.6699 2.72806 11.1249 2.48457Q11.5799 2.24108 12.0463 2.02024Q12.5127 1.79939 12.9893 1.60172Q13.466 1.40405 13.9518 1.23004Q14.4376 1.05602 14.9314 0.90607Q15.4251 0.756124 15.9257 0.630611Q16.4262 0.505099 16.9323 0.404324Q17.4384 0.303548 17.9488 0.227753Q18.4593 0.151957 18.9728 0.101325Q19.4863 0.0506933 20.0018 0.0253466Q20.5172 0 21.0332 0L21.0332 0Z" transform="translate(57 115)" id="Rectangle" fill="#7796FE" fill-opacity="0.486228079" stroke="none" />
  </g>
  <path d="M21.0283 0L728.118 0Q728.676 0 729.233 0.0295936Q729.789 0.0591872 730.344 0.118291Q730.898 0.177395 731.449 0.265842Q732 0.35429 732.545 0.471831Q733.09 0.589373 733.628 0.735678Q734.166 0.881983 734.695 1.05664Q735.225 1.23129 735.745 1.43381Q736.264 1.63632 736.772 1.86612Q737.28 2.09592 737.775 2.35236Q738.271 2.60881 738.751 2.89116Q739.232 3.17352 739.697 3.481Q740.163 3.78848 740.611 4.12021Q741.059 4.45195 741.489 4.807Q741.919 5.16206 742.329 5.53943Q742.74 5.9168 743.13 6.31543Q743.52 6.71405 743.888 7.13281Q744.256 7.55157 744.602 7.98928Q744.947 8.42699 745.269 8.88242Q745.591 9.33785 745.888 9.80971Q746.185 10.2816 746.457 10.7685Q746.728 11.2555 746.974 11.7562Q747.219 12.2569 747.438 12.7699Q747.656 13.2829 747.847 13.8068Q748.038 14.3307 748.201 14.864Q748.364 15.3973 748.498 15.9385Q748.633 16.4797 748.738 17.0272Q748.844 17.5748 748.92 18.1271Q748.996 18.6795 749.043 19.2352Q749.09 19.7908 749.107 20.3482Q749.124 20.9055 749.112 21.463Q749.1 22.0205 749.058 22.5765Q749.016 23.1326 748.945 23.6856L715.555 282.518L23.6709 355.554Q23.1243 355.612 22.5755 355.641Q22.0267 355.67 21.4772 355.67Q20.9276 355.67 20.3788 355.642Q19.8299 355.613 19.2833 355.556Q18.7368 355.499 18.1939 355.414Q17.651 355.328 17.1134 355.214Q16.5758 355.1 16.0449 354.958Q15.5139 354.816 14.9911 354.647Q14.4683 354.477 13.9551 354.281Q13.4419 354.084 12.9397 353.861Q12.4375 353.638 11.9476 353.389Q11.4578 353.14 10.9816 352.865Q10.5054 352.591 10.0443 352.292Q9.58313 351.993 9.13824 351.67Q8.69335 351.348 8.26594 351.002Q7.83854 350.657 7.42979 350.289Q7.02104 349.922 6.63207 349.534Q6.2431 349.146 5.87496 348.737Q5.50683 348.329 5.16054 347.903Q4.81426 347.476 4.49076 347.032Q4.16727 346.587 3.86746 346.127Q3.56765 345.666 3.29235 345.191Q3.01704 344.715 2.76699 344.226Q2.51693 343.736 2.29282 343.234Q2.06871 342.733 1.87115 342.22Q1.67359 341.707 1.50313 341.185Q1.33267 340.662 1.18977 340.131Q1.04686 339.601 0.931916 339.063Q0.816967 338.526 0.730285 337.983Q0.643604 337.44 0.585428 336.894Q0.527251 336.348 0.497739 335.799Q0.468226 335.25 0.467459 334.7L0.0293692 21.0283Q0.0286486 20.5124 0.053268 19.997Q0.0778875 19.4816 0.127788 18.9681Q0.177688 18.4546 0.252748 17.9441Q0.327808 17.4336 0.427848 16.9275Q0.527887 16.4213 0.652664 15.9207Q0.777441 15.42 0.926654 14.9261Q1.07587 14.4322 1.24916 13.9462Q1.42245 13.4602 1.6194 12.9834Q1.81634 12.5065 2.03647 12.0398Q2.25661 11.5732 2.49939 11.1179Q2.74217 10.6627 3.00702 10.2199Q3.27187 9.77708 3.55814 9.34783Q3.84442 8.91858 4.15143 8.5039Q4.45844 8.08923 4.78544 7.69013Q5.11245 7.29104 5.45866 6.90848Q5.80487 6.52593 6.16945 6.16084Q6.53403 5.79575 6.9161 5.449Q7.29817 5.10226 7.69681 4.7747Q8.09545 4.44714 8.50969 4.13955Q8.92394 3.83196 9.35279 3.54508Q9.78164 3.25821 10.2241 2.99274Q10.6665 2.72728 11.1214 2.48386Q11.5763 2.24044 12.0427 2.01966Q12.509 1.79887 12.9856 1.60126Q13.4622 1.40365 13.948 1.22968Q14.4337 1.05571 14.9274 0.905807Q15.4211 0.755904 15.9216 0.630428Q16.422 0.504952 16.9281 0.404206Q17.4341 0.303459 17.9444 0.227686Q18.4548 0.151913 18.9683 0.101296Q19.4817 0.0506784 19.9971 0.0253392Q20.5124 0 21.0284 0L21.0283 0Z" transform="translate(15 15)" id="Rectangle-Copy-2" fill="#7796FE" stroke="none" />
</svg>